<svg id="Layer_1" data-name="Layer 1" xmlns="http://www.w3.org/2000/svg" viewBox="0 0 840.17 213.57"><defs><style>.cls-1{fill:#231f20;}.cls-2{fill:#a7a9ac;}.cls-3{fill:#c10230;}.cls-4{fill:#fff;}</style></defs><title>the_art_exchange</title><path class="cls-1" d="M332.32,144.44H281.49V82.57h50.83V93.89H294.2v14.23H331V119H294.2v14h38.12Z"/><path class="cls-1" d="M392.19,82.57h14.06v.54l-23,30.05,23.67,30.94v.34H392.58L375.21,121.2l-17.36,23.24H343.49v-.34l23.57-30.94-22.89-30v-.54h14.07l17,23.08Z"/><path class="cls-1" d="M478.25,136.67c-7,6.27-16,9.19-25.8,9.19-25.22,0-35.89-15.82-36-31.91s11.45-32.61,36-32.61a36.84,36.84,0,0,1,24.92,9.46l-8.53,7.51a24.62,24.62,0,0,0-16.39-5.84c-16.4,0-23.47,11.15-23.38,21.48s6.6,21,23.38,21a26.38,26.38,0,0,0,17.07-6.27Z"/><path class="cls-1" d="M535.6,144.53v-25H502.23v25h-12.8V82.66h12.8v26.08H535.6V82.66h12.7v61.87Z"/><path class="cls-1" d="M612.45,132.78H577l-5.82,11.66H557.26l30.46-61.87h14l30.45,61.87h-14ZM594.7,95.57l-12.61,26.34h25.22Z"/><path class="cls-1" d="M686.48,82.49h12.79v62h-7.95v.09l-35.68-41.8v41.71h-12.8V82.57h10.37l33.27,38.36Z"/><path class="cls-1" d="M765.36,97.69a27.47,27.47,0,0,0-17.27-6.19c-14.54,0-23.38,10.08-23.38,22.81,0,10.16,6.5,20.68,23.38,20.68a24,24,0,0,0,15.33-5v-11H746.05V108.65h29.1v26.08c-6.69,7-15.13,11.13-27.06,11.13-25.51,0-35.89-15.29-35.89-31.55,0-17.41,11.93-33.5,35.89-33.5a37.73,37.73,0,0,1,25.22,9.46Z"/><path class="cls-1" d="M840.17,144.44H789.34V82.57h50.83V93.89H802.05v14.23h36.76V119H802.05v14h38.12Z"/><path class="cls-1" d="M291.53,41.15h-10V36.21h26.05v4.94h-10V65h-6Z"/><path class="cls-1" d="M334.54,65.06V53.41H319V65.06h-6V36.25h6V48.39h15.56V36.25h5.93V65.06Z"/><path class="cls-1" d="M371.5,65H347.8V36.21h23.7v5.27H353.72V48.1h17.14v5.07H353.72v6.5H371.5Z"/><rect class="cls-1" x="386.07" y="61.7" width="454.09" height="3.32"/><rect class="cls-1" x="281.49" y="163.85" width="558.67" height="3.33"/><path class="cls-2" d="M124.47,14.84A3.52,3.52,0,1,1,121,11.32,3.52,3.52,0,0,1,124.47,14.84Z"/><polygon class="cls-3" points="269.07 145.31 39.41 213.57 0 80.98 52.22 65.46 229.67 12.72 269.07 145.31"/><polygon class="cls-2" points="87.16 55.07 120.2 5.66 147.11 37.26 150.7 36.19 119.87 0 82.03 56.6 87.16 55.07"/><path class="cls-4" d="M87.9,132.78H52.4l-5.82,11.66H32.71L63.16,82.57h14l30.46,61.87h-14ZM70.15,95.57,57.54,121.91H82.76Z"/><path class="cls-4" d="M174,144.44H158.8L139,123.76H126.7v20.68H113.89V82.49c10.77,0,21.54.08,32.31.08,16,.09,24.44,9.82,24.44,20.51,0,8.49-4.27,17.07-17.17,19.45L174,143.65Zm-47.33-51v19.8h19.5c8.14,0,11.63-5,11.63-9.9s-3.58-9.9-11.63-9.9Z"/><path class="cls-4" d="M198.27,93.19H176.73V82.57h55.88V93.19H211.08v51.25H198.27Z"/></svg>